<svg width="20" height="21" viewBox="0 0 20 21" fill="none" xmlns="http://www.w3.org/2000/svg">
<path d="M1.1593 12.7509C0.759297 13.1909 0.529297 13.7709 0.529297 14.3709C0.529297 15.0109 0.789297 15.6309 1.2393 16.0909C1.6993 16.5509 2.3093 16.8009 2.9593 16.8009H7.0193V15.1809H2.9593C2.7493 15.1809 2.5393 15.0909 2.3893 14.9409C2.2393 14.7909 2.1493 14.5809 2.1493 14.3709C2.1493 14.2609 2.1693 14.1609 2.2193 14.0609C2.2593 13.9609 2.3293 13.8709 2.3993 13.8009C2.4693 13.7209 2.5593 13.6609 2.6493 13.6209C2.7493 13.5809 2.8493 13.5609 2.9493 13.5609H7.0093V11.9409H2.9593C2.7493 11.9409 2.5393 11.8509 2.3893 11.7009C2.2393 11.5509 2.1493 11.3409 2.1493 11.1309C2.1493 11.0209 2.1693 10.9209 2.2193 10.8209C2.2593 10.7209 2.3293 10.6309 2.3993 10.5609C2.4693 10.4809 2.5593 10.4209 2.6493 10.3809C2.7493 10.3409 2.8493 10.3209 2.9493 10.3209H7.0093V8.70094H2.9593C2.7493 8.70094 2.5393 8.61094 2.3893 8.46094C2.2393 8.31094 2.1493 8.10094 2.1493 7.89094C2.1493 7.78094 2.1693 7.68094 2.2193 7.58094C2.2593 7.48094 2.3293 7.39094 2.3993 7.32094C2.4693 7.24094 2.5593 7.18094 2.6493 7.14094C2.7493 7.10094 2.8493 7.08094 2.9493 7.08094H7.0093V5.46094H2.9593C2.4893 5.46094 2.0293 5.60094 1.6393 5.86094C1.2493 6.12094 0.939297 6.48094 0.749297 6.91094C0.559297 7.34094 0.499297 7.81094 0.569297 8.27094C0.639297 8.73094 0.849297 9.16094 1.1593 9.51094C0.759297 9.96094 0.539297 10.5309 0.539297 11.1309C0.539297 11.7309 0.759297 12.3109 1.1593 12.7509Z" fill="#A6B1BA"/>
<path d="M7.34094 7.3207C7.43094 7.4107 7.49094 7.5307 7.53094 7.6507V6.9007H8.98094C8.86094 6.6307 8.70094 6.3907 8.49094 6.1807C8.03094 5.7207 7.42094 5.4707 6.77094 5.4707H2.71094V7.0907H6.77094C6.98094 7.0907 7.19094 7.1807 7.34094 7.3307V7.3207Z" fill="#A6B1BA"/>
<path d="M7.34094 10.5594C7.43094 10.6494 7.49094 10.7694 7.53094 10.8894V8.10938C7.53094 8.10938 7.53094 8.16937 7.51094 8.19937C7.47094 8.29937 7.40094 8.38937 7.33094 8.45937C7.26094 8.53937 7.17094 8.59938 7.08094 8.63938C6.98094 8.67938 6.88094 8.69937 6.78094 8.69937H2.71094V10.3194H6.77094C6.98094 10.3194 7.19094 10.4094 7.34094 10.5594Z" fill="#A6B1BA"/>
<path d="M7.53094 13.9594V11.3594C7.53094 11.3594 7.53094 11.4194 7.51094 11.4494C7.47094 11.5494 7.40094 11.6394 7.33094 11.7094C7.26094 11.7894 7.17094 11.8494 7.08094 11.8894C6.98094 11.9294 6.88094 11.9494 6.78094 11.9494H2.71094V13.5694H6.77094C6.98094 13.5694 7.19094 13.6594 7.34094 13.8094C7.49094 13.9594 7.58094 14.1694 7.58094 14.3794C7.58094 14.4894 7.56094 14.5894 7.51094 14.6894C7.47094 14.7894 7.40094 14.8794 7.33094 14.9494C7.26094 15.0294 7.17094 15.0894 7.08094 15.1294C6.98094 15.1694 6.88094 15.1894 6.78094 15.1894H2.71094V16.8094H6.77094C7.24094 16.8094 7.70094 16.6694 8.09094 16.4094C8.48094 16.1494 8.79094 15.7894 8.98094 15.3594C9.11094 15.0594 9.16094 14.7294 9.16094 14.3994L7.53094 13.9494V13.9594Z" fill="#A6B1BA"/>
<path d="M10.3999 12.2695C10.5499 12.7895 10.7899 13.2095 11.1099 13.5295C11.4299 13.8495 11.8499 14.0695 12.3599 14.1895V14.4695C12.3599 14.6195 12.4199 14.7595 12.5299 14.8695C12.6399 14.9795 12.7799 15.0395 12.9299 15.0395C13.0799 15.0395 13.2199 14.9795 13.3299 14.8695C13.4399 14.7595 13.4999 14.6195 13.4999 14.4695V14.2295C14.0399 14.1295 14.5099 13.9195 14.8999 13.5895C15.2899 13.2595 15.4899 12.7795 15.4899 12.1395C15.4899 11.6795 15.3599 11.2595 15.0999 10.8795C14.8399 10.4995 14.3199 10.1695 13.5299 9.87945C12.8799 9.65945 12.4299 9.46945 12.1799 9.30945C11.9299 9.14945 11.7999 8.91945 11.7999 8.63945C11.7999 8.35945 11.8999 8.12945 12.0999 7.96945C12.2999 7.80945 12.5899 7.72945 12.9699 7.72945C13.3199 7.72945 13.5899 7.80945 13.7899 7.97945C13.9899 8.14945 14.1299 8.35945 14.2099 8.60945L15.2499 8.18945C15.1299 7.80945 14.9099 7.47945 14.5899 7.18945C14.2699 6.90945 13.9099 6.74945 13.5199 6.71945V6.47945C13.5199 6.32945 13.4599 6.18945 13.3499 6.07945C13.2399 5.96945 13.0999 5.90945 12.9499 5.90945C12.7999 5.90945 12.6599 5.96945 12.5499 6.07945C12.4399 6.18945 12.3799 6.32945 12.3799 6.47945V6.71945C11.8399 6.83945 11.4099 7.07945 11.1099 7.43945C10.8099 7.79945 10.6499 8.19945 10.6499 8.64945C10.6499 9.15945 10.7999 9.56945 11.0999 9.88945C11.3999 10.2095 11.8699 10.4795 12.5099 10.7095C13.1999 10.9595 13.6699 11.1795 13.9399 11.3795C14.2099 11.5795 14.3399 11.8295 14.3399 12.1495C14.3399 12.5095 14.2099 12.7695 13.9599 12.9395C13.7099 13.1095 13.3999 13.1895 13.0399 13.1895C12.6799 13.1895 12.3599 13.0795 12.0899 12.8595C11.8099 12.6395 11.6099 12.2995 11.4799 11.8595L10.3999 12.2795V12.2695ZM12.9499 16.9995C12.0499 16.9995 11.1999 16.8295 10.3999 16.4895C9.59992 16.1495 8.90992 15.6795 8.32992 15.0895C7.73992 14.4995 7.27992 13.8095 6.92992 13.0195C6.58992 12.2295 6.41992 11.3795 6.41992 10.4695C6.41992 9.55945 6.58992 8.71945 6.92992 7.91945C7.26992 7.12945 7.73992 6.42945 8.32992 5.84945C8.91992 5.25945 9.60992 4.79945 10.3999 4.44945C11.1899 4.10945 12.0399 3.93945 12.9499 3.93945C13.8599 3.93945 14.6999 4.10945 15.4999 4.44945C16.2899 4.78945 16.9899 5.25945 17.5699 5.84945C18.1599 6.43945 18.6199 7.12945 18.9699 7.91945C19.3199 8.70945 19.4799 9.55945 19.4799 10.4695C19.4799 11.3795 19.3099 12.2195 18.9699 13.0195C18.6299 13.8095 18.1599 14.5095 17.5699 15.0895C16.9799 15.6795 16.2899 16.1395 15.4999 16.4895C14.7099 16.8295 13.8599 16.9995 12.9499 16.9995ZM12.9499 15.6895C14.4099 15.6895 15.6399 15.1795 16.6499 14.1695C17.6599 13.1595 18.1699 11.9195 18.1699 10.4695C18.1699 9.01945 17.6599 7.77945 16.6499 6.76945C15.6399 5.75945 14.3999 5.24945 12.9499 5.24945C11.4999 5.24945 10.2599 5.75945 9.24992 6.76945C8.23992 7.77945 7.72992 9.01945 7.72992 10.4695C7.72992 11.9195 8.23992 13.1595 9.24992 14.1695C10.2599 15.1795 11.4999 15.6895 12.9499 15.6895Z" fill="#A6B1BA"/>
</svg>
