<svg width="16" height="17" viewBox="0 0 16 17" fill="none" xmlns="http://www.w3.org/2000/svg">
<path d="M6.80078 14.8996H5.20078C3.8753 14.8996 2.80078 13.8251 2.80078 12.4996V4.49961C2.80078 3.17413 3.8753 2.09961 5.20078 2.09961H10.8008C12.1263 2.09961 13.2008 3.17413 13.2008 4.49961V6.49961M10.4008 5.29961H5.20078M8.00078 7.69961H5.20078M6.80078 10.0996H5.20078M9.20078 10.2996L10.1275 9.83626C10.8031 9.49843 11.5984 9.49843 12.2741 9.83627L13.2008 10.2996C13.2008 10.2996 13.2008 11.7596 13.2008 12.5296C13.2008 13.2996 12.489 13.8194 11.2008 14.6329C9.91256 13.8194 9.20078 13.1329 9.20078 12.5296V10.2996Z" stroke="#8C5F42" stroke-width="1.5" stroke-linecap="round" stroke-linejoin="round"/>
</svg>
