<svg width="20" height="21" viewBox="0 0 20 21" fill="none" xmlns="http://www.w3.org/2000/svg">
<path d="M2.70898 17.5826C2.5319 17.5826 2.38346 17.5227 2.26367 17.4029C2.14388 17.283 2.08398 17.1345 2.08398 16.9574C2.08398 16.7802 2.14388 16.6318 2.26367 16.5121C2.38346 16.3925 2.5319 16.3327 2.70898 16.3327H17.2923C17.4694 16.3327 17.6178 16.3926 17.7376 16.5124C17.8574 16.6323 17.9173 16.7808 17.9173 16.9579C17.9173 17.1351 17.8574 17.2835 17.7376 17.4031C17.6178 17.5228 17.4694 17.5826 17.2923 17.5826H2.70898ZM3.95992 15.1788C3.67084 15.1788 3.4248 15.0775 3.22182 14.875C3.01882 14.6724 2.91732 14.4265 2.91732 14.1371V11.1243C2.91732 10.835 3.0185 10.5891 3.22086 10.3865C3.42322 10.184 3.66894 10.0827 3.95803 10.0827C4.24712 10.0827 4.49317 10.184 4.69615 10.3865C4.89914 10.5891 5.00063 10.835 5.00063 11.1243V14.1371C5.00063 14.4265 4.89945 14.6724 4.69709 14.875C4.49473 15.0775 4.24901 15.1788 3.95992 15.1788ZM7.98234 15.1788C7.69326 15.1788 7.44722 15.0775 7.24423 14.875C7.04125 14.6724 6.93976 14.4265 6.93976 14.1371V6.95768C6.93976 6.66834 7.04094 6.42239 7.2433 6.21985C7.44566 6.01729 7.69138 5.91602 7.98046 5.91602C8.26955 5.91602 8.51558 6.01729 8.71857 6.21985C8.92155 6.42239 9.02305 6.66834 9.02305 6.95768V14.1371C9.02305 14.4265 8.92187 14.6724 8.71953 14.875C8.51717 15.0775 8.27144 15.1788 7.98234 15.1788ZM12.0128 15.1788C11.7237 15.1788 11.4777 15.0775 11.2747 14.875C11.0717 14.6724 10.9702 14.4265 10.9702 14.1371V9.45768C10.9702 9.16834 11.0714 8.92239 11.2737 8.71985C11.4761 8.51729 11.7218 8.41602 12.0109 8.41602C12.3 8.41602 12.546 8.51729 12.749 8.71985C12.952 8.92239 13.0535 9.16834 13.0535 9.45768V14.1371C13.0535 14.4265 12.9523 14.6724 12.75 14.875C12.5476 15.0775 12.3019 15.1788 12.0128 15.1788ZM16.0432 15.1788C15.7541 15.1788 15.5081 15.0775 15.3051 14.875C15.1021 14.6724 15.0006 14.4265 15.0006 14.1371V4.45768C15.0006 4.16834 15.1018 3.92239 15.3042 3.71985C15.5065 3.51729 15.7523 3.41602 16.0413 3.41602C16.3304 3.41602 16.5765 3.51729 16.7794 3.71985C16.9824 3.92239 17.0839 4.16834 17.0839 4.45768V14.1371C17.0839 14.4265 16.9828 14.6724 16.7804 14.875C16.578 15.0775 16.3323 15.1788 16.0432 15.1788Z" fill="#A6B1BA"/>
</svg>
