<svg width="20" height="16" viewBox="0 0 20 16" fill="none" xmlns="http://www.w3.org/2000/svg">
<g id="camera-1--photos-picture-camera-photography-photo-pictures">
<path id="Vector" d="M19.2857 5.14289C19.2857 4.76401 19.1351 4.40065 18.8672 4.13274C18.5994 3.86484 18.2359 3.71432 17.8571 3.71432H14.9999L12.8571 0.857178H7.1428L4.99995 3.71432H2.1428C1.76392 3.71432 1.40056 3.86484 1.13265 4.13274C0.864743 4.40065 0.714233 4.76401 0.714233 5.14289V13.7143C0.714233 14.0932 0.864743 14.4566 1.13265 14.7245C1.40056 14.9923 1.76392 15.1429 2.1428 15.1429H17.8571C18.2359 15.1429 18.5994 14.9923 18.8672 14.7245C19.1351 14.4566 19.2857 14.0932 19.2857 13.7143V5.14289Z" stroke="#248568" stroke-linecap="round" stroke-linejoin="round"/>
<path id="Vector_2" d="M9.99993 11.9286C11.7751 11.9286 13.2142 10.4895 13.2142 8.71429C13.2142 6.93909 11.7751 5.5 9.99993 5.5C8.22473 5.5 6.78564 6.93909 6.78564 8.71429C6.78564 10.4895 8.22473 11.9286 9.99993 11.9286Z" stroke="#248568" stroke-linecap="round" stroke-linejoin="round"/>
</g>
</svg>
