<svg width="24" height="25" viewBox="0 0 24 25" fill="none" xmlns="http://www.w3.org/2000/svg">
<g id="trash-02">
<path id="Icon" d="M3.99805 6.74581H19.998M9.99805 17.334V10.9811M13.998 17.334V10.9811M15.998 21.5693H7.99805C6.89348 21.5693 5.99805 20.6212 5.99805 19.4517V7.80463C5.99805 7.21986 6.44576 6.74581 6.99805 6.74581H16.998C17.5503 6.74581 17.998 7.21986 17.998 7.80463V19.4517C17.998 20.6212 17.1026 21.5693 15.998 21.5693ZM9.99805 6.74581H13.998C14.5503 6.74581 14.998 6.27176 14.998 5.68698V4.62816C14.998 4.04339 14.5503 3.56934 13.998 3.56934H9.99805C9.44576 3.56934 8.99805 4.04339 8.99805 4.62816V5.68698C8.99805 6.27176 9.44576 6.74581 9.99805 6.74581Z" stroke="#FF4444" stroke-width="1.5" stroke-linecap="round" stroke-linejoin="round"/>
</g>
</svg>
