<svg width="17" height="12" viewBox="0 0 17 12" fill="none" xmlns="http://www.w3.org/2000/svg">
<g id="bullet-list--points-bullet-unordered-list-lists-bullets">
<path id="Vector_2" d="M1.5 3.12976L15.5 3.12976" stroke="#2B2F35" stroke-width="1.5" stroke-linecap="round" stroke-linejoin="round"/>
<path id="Vector_4" d="M1.5 9.12976H15.5" stroke="#2B2F35" stroke-width="1.5" stroke-linecap="round" stroke-linejoin="round"/>
<path id="Vector" d="M3.92321 4.37036C4.75163 4.37036 5.42321 3.69878 5.42321 2.87036C5.42321 2.04194 4.75163 1.37036 3.92321 1.37036C3.09478 1.37036 2.42321 2.04194 2.42321 2.87036C2.42321 3.69878 3.09478 4.37036 3.92321 4.37036Z" fill="white" stroke="#2B2F35" stroke-linecap="round" stroke-linejoin="round"/>
<path id="Vector_3" d="M12.0491 10.6298C12.8775 10.6298 13.5491 9.95818 13.5491 9.12976C13.5491 8.30134 12.8775 7.62976 12.0491 7.62976C11.2207 7.62976 10.5491 8.30134 10.5491 9.12976C10.5491 9.95818 11.2207 10.6298 12.0491 10.6298Z" fill="white" stroke="#2B2F35" stroke-linecap="round" stroke-linejoin="round"/>
</g>
</svg>
